<?xml version="1.0" encoding="UTF-8" standalone="no"?>
<!DOCTYPE svg PUBLIC "-//W3C//DTD SVG 1.0//EN" "http://www.w3.org/TR/2001/PR-SVG-20010719/DTD/svg10.dtd">
<svg
    width="3840px"
    height="4320px"
    viewBox="0 0 3840 4320"
    xmlns="http://www.w3.org/2000/svg"
    xmlns:xlink="http://www.w3.org/1999/xlink">
  <defs>
    <g id="Internet">
      <path
          style="fill:#2ad4ff"
          d="m 150.24106,255.90424 c -16.12027,-2.23705 -30.80672,-11.15267 -40.45014,-24.5558 l -2.04475,-2.84196 -7.5216,2.08435 C 79.634442,236.29665 59.848079,230.83409 44.067921,215.0873 35.384293,206.42204 30.10116,197.3467 27.55019,186.71323 25.937861,179.99239 26.123035,165.54971 27.897112,159.6549 l 1.426358,-4.73943 -4.936226,-3.62351 C 7.7326105,139.06633 -1.9729888,116.3449 1.1609518,96.917722 3.5238678,82.270096 9.6468263,70.589639 19.856872,61.25246 29.737134,52.216874 44.371661,45.796948 55.088445,45.796948 c 3.216365,0 4.029788,-0.408553 4.516118,-2.268286 1.274983,-4.875539 8.475242,-17.839116 12.358642,-22.25089 C 82.668965,9.1153859 101.72331,0.28714273 117.11597,0.35762304 127.72944,0.40622047 143.87496,6.2748993 153.49066,13.579333 l 4.25975,3.235861 3.82147,-2.519205 c 6.06699,-3.999503 16.8167,-7.8697956 24.5582,-8.841853 30.50313,-3.8301095 60.02556,18.410076 64.87197,48.870113 l 1.19406,7.504761 4.44329,1.118835 c 11.00909,2.772121 25.03859,12.715675 31.79956,22.53828 7.46486,10.845255 10.76982,21.289945 10.78761,34.092265 0.0184,13.22627 -3.22387,23.31446 -11.25695,35.02561 l -2.91951,4.25628 2.20832,6.35033 c 3.01122,8.65915 3.68187,23.37181 1.46606,32.16239 -2.8941,11.4815 -7.19623,18.87193 -16.1824,27.799 -13.13927,13.05284 -26.38541,18.20921 -44.51929,17.3302 -8.2729,-0.40103 -11.45628,-1.05236 -17.58535,-3.59805 l -7.48382,-3.10839 -5.26504,4.81195 c -12.60478,11.52007 -31.27873,17.54033 -47.44753,15.29653 z m 18.14077,-14.67428 c 9.46602,-2.46559 17.30597,-7.22404 23.55288,-14.29542 3.08542,-3.49264 6.44396,-6.61498 7.46341,-6.93854 1.09677,-0.3481 5.25659,1.05872 10.18836,3.4456 15.37502,7.44122 27.9852,7.60832 42.07875,0.5576 21.7785,-10.89533 30.8517,-36.64427 20.74546,-58.87378 -1.35661,-2.98396 -2.46655,-6.43237 -2.46655,-7.66314 0,-1.23077 2.18011,-4.95423 4.84469,-8.27436 5.79284,-7.21802 9.11366,-14.54632 10.56753,-23.3201 2.17258,-13.11109 -3.06613,-28.353772 -13.15843,-38.286114 -6.65367,-6.548203 -13.20674,-10.119633 -21.90887,-11.940355 -3.45554,-0.722994 -7.25994,-1.837485 -8.45423,-2.476643 -2.36681,-1.266681 -2.49543,-1.708498 -4.08251,-14.024322 -2.70913,-21.022872 -17.3129,-36.357289 -37.99959,-39.900769 -11.86571,-2.03251 -25.76406,1.911645 -36.26605,10.29179 -5.75608,4.593106 -8.66963,4.205895 -15.03954,-1.998753 C 130.90128,10.442013 104.05517,10.246251 85.340347,27.07248 79.46417,32.355668 73.497032,43.070521 72.415869,50.280234 71.408531,56.997641 69.05018,58.554898 58.822253,59.256309 48.875715,59.938424 42.181228,61.982693 35.083668,66.505265 16.138243,78.577313 9.1349032,103.73743 19.049154,124.11067 c 3.415191,7.01803 12.249887,16.45195 18.295093,19.53599 2.351726,1.19976 5.050102,3.36301 5.996388,4.80722 1.644591,2.50997 1.611808,2.94406 -0.742841,9.836 -4.72136,13.81919 -2.70879,29.46899 5.265251,40.94272 4.601909,6.62162 13.327538,13.83243 19.937976,16.47662 4.717535,1.88703 7.617211,2.26888 17.285198,2.27625 10.522046,0.008 12.265326,-0.26387 18.499221,-2.88526 8.65734,-3.64047 10.22723,-3.05704 15.88662,5.90396 10.92819,17.30356 29.94182,25.16631 48.90977,20.22579 z"
          id="path2999"
          />
    </g>
    <g id="Networking">
      <rect
          width="320"
          height="180"
          style="fill: #333333; stroke-width: 5; stroke: #18CAE6" />
    </g>
    <g id="Server">
      <rect
          width="320"
          height="180"
          style="fill: #3333bb; stroke-width: 5; stroke: #18CAE6"
          />
    </g>
    <g id="Workstation">
      <rect
          width="320"
          height="180"
          style="fill: #333333; stroke-width: 5; stroke: #18CAE6"
          />
    </g>
    <g id="Xen_vert">
      <rect
          width="360"
          height="1040"
          style="fill: #333333; stroke-width: 5; stroke: #18CAE6"
          />
      <use x="20" y="20" xlink:href="#Server" />
      <line
          x1="0" y1="220" x2="360" y2="220"
          style="fill: #333333; stroke-width: 5; stroke: #18CAE6"
          />
      <use x="20" y="240" xlink:href="#Server" />
      <use x="20" y="440" xlink:href="#Server" />
      <use x="20" y="640" xlink:href="#Server" />
      <use x="20" y="840" xlink:href="#Server" />
    </g>
    <g id="Xen_hor">
      <rect
          width="1760"
          height="220"
          style="fill: #333333; stroke-width: 5; stroke: #18CAE6"
          />
      <use x="20" y="20" xlink:href="#Server" />
      <line
          x1="360" y1="0" x2="360" y2="220"
          style="fill: #333333; stroke-width: 5; stroke: #18CAE6"
          />
      <use x="380" y="20" xlink:href="#Server" />
      <use x="720" y="20" xlink:href="#Server" />
      <use x="1060" y="20" xlink:href="#Server" />
      <use x="1400" y="20" xlink:href="#Server" />
    </g>
    <g id="Xen_hor2">
      <rect
          width="1740"
          height="420"
          style="fill: #333333; stroke-width: 5; stroke: #18CAE6"
          />
      <use x="20" y="20" xlink:href="#Server" />
      <line
          x1="360" y1="0" x2="360" y2="420"
          style="fill: #333333; stroke-width: 5; stroke: #18CAE6"
          />
      <use x="380" y="20" xlink:href="#Server" />
      <use x="720" y="20" xlink:href="#Server" />
      <use x="1060" y="20" xlink:href="#Server" />
      <use x="1400" y="20" xlink:href="#Server" />
      <use x="380" y="220" xlink:href="#Server" />
      <use x="720" y="220" xlink:href="#Server" />
      <use x="1060" y="220" xlink:href="#Server" />
      <use x="1400" y="220" xlink:href="#Server" />
    </g>
    <g id="WifiNetwork">
      <rect
          width="1740"
          height="1020"
          style="fill: #333333; stroke-width: 5; stroke: #18CAE6"
          />
      <line
          x1="360" y1="0" x2="360" y2="1020"
          style="fill: #333333; stroke-width: 5; stroke: #18CAE6"
          />
      <rect
          width="340"
          height="800"
          x="10"
          y="210"
          style="fill: #333333; stroke-width: 5; stroke: #18CAE6"
          />

      <use x="20" y="220" xlink:href="#Networking" />
      <use x="20" y="420" xlink:href="#Networking" />
      <use x="20" y="620" xlink:href="#Networking" />
      <use x="20" y="820" xlink:href="#Networking" />
      <use x="380" y="220" xlink:href="#Networking" />
      <use x="380" y="420" xlink:href="#Networking" />
      <use x="380" y="620" xlink:href="#Networking" />
      <use x="380" y="820" xlink:href="#Networking" />
      <use x="720" y="220" xlink:href="#Networking" />
      <use x="720" y="420" xlink:href="#Networking" />
      <use x="720" y="620" xlink:href="#Networking" />
      <use x="720" y="820" xlink:href="#Networking" />
      <use x="1060" y="220" xlink:href="#Networking" />
      <use x="1060" y="420" xlink:href="#Networking" />
      <use x="1060" y="620" xlink:href="#Networking" />
      <use x="1060" y="820" xlink:href="#Networking" />
      <use x="1400" y="220" xlink:href="#Networking" />
      <use x="1400" y="420" xlink:href="#Networking" />
      <use x="1400" y="620" xlink:href="#Networking" />
      <use x="1400" y="820" xlink:href="#Networking" />

    </g>
    <g id="Printer">
      <rect
          width="320"
          height="180"
          style="fill: #333333; stroke-width: 5; stroke: #18CAE6"
          />
    </g>
    <g id="Camera">
      <rect
          width="320"
          height="180"
          style="fill: #333333; stroke-width: 5; stroke: #18CAE6"
          />
    </g>

    <g id="AV">
      <rect
          width="320"
          height="180"
          style="fill: #333333; stroke-width: 5; stroke: #18CAE6"
          />
    </g>
    <g id="AVR">
      <rect
          width="320"
          height="180"
          style="fill: #333333; stroke-width: 5; stroke: #18CAE6"
          />
    </g>
    <g id="DMZ">
      <rect
          width="720"
          height="3520"
          style="fill: #111111; stroke-width: 5; stroke: #FFFFFF"
          />
      <use x="20" y="20" xlink:href="#Networking" />
      <use x="360" y="200" xlink:href="#Server" />
      <use x="360" y="400" xlink:href="#Server" />
      <use x="360" y="600" xlink:href="#Server" />
      <use x="360" y="800" xlink:href="#Server" />
      <use x="360" y="1000" xlink:href="#Server" />
      <use x="360" y="1200" xlink:href="#Server" />
      <use x="360" y="1400" xlink:href="#Server" />
      <use x="360" y="1600" xlink:href="#Server" />
      <use x="360" y="1800" xlink:href="#Server" />
      <use x="360" y="2000" xlink:href="#Server" />
      <use x="360" y="2200" xlink:href="#Server" />
      <use x="360" y="2400" xlink:href="#Server" />
      <use x="360" y="2600" xlink:href="#Server" />
      <use x="360" y="2800" xlink:href="#Server" />
      <use x="360" y="3000" xlink:href="#Server" />
      <use x="360" y="3200" xlink:href="#Server" />
    </g>
    <g id="DMZSupp">
      <rect
          width="720"
          height="3520"
          style="fill: #111111; stroke-width: 5; stroke: #FFFFFF"
          />
      <use x="20" y="20" xlink:href="#Networking" />
      <use x="360" y="200" xlink:href="#Server" />
      <use x="360" y="400" xlink:href="#Server" />
      <use x="360" y="600" xlink:href="#Server" />
      <use x="360" y="800" xlink:href="#Server" />
      <use x="360" y="1000" xlink:href="#Server" />
      <use x="360" y="1200" xlink:href="#Server" />
      <use x="360" y="1400" xlink:href="#Server" />
      <use x="360" y="1600" xlink:href="#Server" />
      <use x="360" y="1800" xlink:href="#Server" />
      <use x="360" y="2000" xlink:href="#Server" />
      <use x="360" y="2200" xlink:href="#Server" />
      <use x="360" y="2400" xlink:href="#Xen_vert" />
    </g>
    <g id="InternalNetwork">
      <rect
          width="2460"
          height="3520"
          style="fill: #332222; stroke-width: 5; stroke: #FFFFFF"
        />
    <use x="20" y="20" xlink:href="#Networking" />

    <g id="CerberusConnections">
      <use x="700" y="20" xlink:href="#WifiNetwork" />
      <use x="360" y="1840" xlink:href="#Networking" />
      <use x="700" y="1120" xlink:href="#Workstation" />
      <use x="1040" y="1120" xlink:href="#Workstation" />
      <use x="1380" y="1120" xlink:href="#Workstation" />
      <use x="1720" y="1120" xlink:href="#Workstation" />
      <use x="2060" y="1120" xlink:href="#Workstation" />
      <use x="700" y="1380" xlink:href="#Server" />
      <use x="1040" y="1380" xlink:href="#Server" />
      <use x="1380" y="1380" xlink:href="#Server" />
      <use x="1720" y="1380" xlink:href="#Server" />
      <use x="2060" y="1380" xlink:href="#Server" />
      <use x="700" y="1600" xlink:href="#Xen_hor2" />
    </g>
    <g id="HydraConnections">
      <use x="700" y="2120" xlink:href="#Server" />
      <use x="1040" y="2120" xlink:href="#Server" />
      <use x="1380" y="2120" xlink:href="#Server" />
      <use x="1720" y="2120" xlink:href="#Server" />
      <use x="2060" y="2120" xlink:href="#Server" />
      <use x="2400" y="2120" xlink:href="#Switch" />
      <use x="700" y="2380" xlink:href="#Server" />
      <use x="1040" y="2380" xlink:href="#Server" />
      <use x="1380" y="2380" xlink:href="#Server" />
      <use x="1720" y="2380" xlink:href="#Server" />
      <use x="2060" y="2380" xlink:href="#Server" />
      <use x="2400" y="2380" xlink:href="#Switch" />
      <use x="700" y="2640" xlink:href="#Server" />
      <use x="1040" y="2640" xlink:href="#Server" />
      <use x="1380" y="2640" xlink:href="#Server" />
      <use x="1720" y="2640" xlink:href="#Server" />
      <use x="2060" y="2640" xlink:href="#Server" />
      <use x="2400" y="2640" xlink:href="#Switch" />
      <use x="700" y="2900" xlink:href="#Server" />
      <use x="1040" y="2900" xlink:href="#Server" />
      <use x="1380" y="2900" xlink:href="#Server" />
      <use x="1720" y="2900" xlink:href="#Server" />
      <use x="2060" y="2900" xlink:href="#Server" />
      <use x="2400" y="2900" xlink:href="#Switch" />
      <use x="700" y="3100" xlink:href="#Xen_hor2" />
    </g>

  </g>

  </defs>
  <g id="Outside Connections">
    <use x="1760" y="40" xlink:href="#Internet" />
    <use x="1760" y="400" xlink:href="#Networking" />
  </g>

  <use x="0" y="800" xlink:href="#InternalNetwork" />
  <use x="2460" y="800" xlink:href="#DMZ" />
  <use x="3160" y="800" xlink:href="#DMZSupp" />


</svg>
